<svg width="16" height="21" viewBox="0 0 16 21" fill="none" xmlns="http://www.w3.org/2000/svg">
<path d="M8.284 12.2418C8.2983 12.4913 8.3126 12.7409 8.32689 12.9905C8.93481 12.9977 9.55026 12.9072 10.1412 12.7172C12.53 11.9889 14.3527 9.49938 14.2459 6.85034C14.2532 3.50724 11.0472 0.518538 7.62877 0.802171C7.62876 0.802171 7.62876 0.802171 7.62876 0.802171C4.20028 0.910728 1.35651 4.24594 1.74553 7.56634C1.94188 10.2103 4.03688 12.4753 6.49329 12.9261C7.10201 13.0474 7.72377 13.0671 8.32689 12.9905C8.3126 12.7409 8.2983 12.4913 8.284 12.2418C7.75285 12.2306 7.23283 12.1382 6.74407 11.971C4.76785 11.3134 3.42803 9.39671 3.43026 7.46984C3.34922 5.03721 5.40254 2.88026 7.74313 2.7989C7.74313 2.7989 7.74313 2.7989 7.74314 2.7989C10.0777 2.61248 12.3639 4.52086 12.5611 6.94684C12.7834 8.86086 11.6712 10.918 9.78295 11.7969C9.31648 12.0189 8.81041 12.17 8.284 12.2418ZM8.32689 12.9905L8.284 12.2418L8.32689 12.9905Z" fill="white"/>
<path d="M15.2057 20.2083C15.2157 20.3027 15.2566 20.3932 15.3259 20.4599C15.3952 20.5267 15.4863 20.5642 15.5807 20.5642C15.6751 20.5642 15.7663 20.5267 15.8355 20.4599C15.9049 20.3932 15.9457 20.3027 15.9557 20.2083C15.9974 19.7912 16.0048 19.3683 15.9762 18.945C15.8106 15.0682 12.1155 11.5296 7.9974 11.625C7.9974 11.625 7.9974 11.625 7.9974 11.625C3.87931 11.5296 0.184186 15.0682 0.0186074 18.945C-0.00997943 19.3683 -0.00262341 19.7912 0.0390625 20.2083C0.0490424 20.3027 0.0899071 20.3932 0.159243 20.4599C0.228523 20.5267 0.31967 20.5642 0.414062 20.5642C0.508455 20.5642 0.599602 20.5267 0.668882 20.4599C0.738218 20.3932 0.779083 20.3027 0.789062 20.2083C0.830721 19.8297 0.899508 19.4588 0.994134 19.0983C1.83075 15.8163 4.88375 13.5813 7.9974 13.625C7.9974 13.625 7.9974 13.625 7.9974 13.625C11.111 13.5813 14.164 15.8163 15.0007 19.0983C15.0953 19.4588 15.1641 19.8297 15.2057 20.2083Z" fill="white"/>
</svg>
