<svg width="36" height="36" viewBox="0 0 36 36" fill="none" xmlns="http://www.w3.org/2000/svg">
<path d="M23.4375 13.5C23.8125 13.5 24.1875 13.5 24.5625 13.5C24.6252 12.6314 24.5834 11.7474 24.4324 10.8754C23.6606 5.8725 18.8661 1.62858 13.5 1.60417C10.3854 1.51587 7.22539 2.78211 5.01472 5.01472C2.78211 7.2254 1.51587 10.3854 1.60417 13.5C1.62858 18.8661 5.8725 23.6606 10.8754 24.4324C11.7474 24.5834 12.6314 24.6252 13.5 24.5625C13.5 24.1875 13.5 23.8125 13.5 23.4375C12.7179 23.3751 11.9519 23.2249 11.2201 22.9918C7.02281 21.6982 4.21193 17.5724 4.39583 13.5C4.45617 11.1073 5.46075 8.80232 7.13604 7.13604C8.80231 5.46076 11.1073 4.45617 13.5 4.39583C17.5724 4.21193 21.6982 7.02281 22.9918 11.2201C23.2249 11.9519 23.3751 12.7179 23.4375 13.5Z" fill="white"/>
<path d="M32.4375 24C32.8125 24 33.1875 24 33.5625 24C33.5894 23.5 33.6156 23 33.6413 22.5C33.6753 21.8326 33.7091 21.174 33.734 20.4998C33.7045 18.5424 34.2002 16.2402 32.3908 14.1092C29.5379 11.6726 26.6047 12.5021 24 12.2344C23.5 12.2209 23 12.2081 22.5 12.1958C19.867 12.3597 17.0714 11.2477 13.792 13.792C11.1871 17.0381 12.2276 19.8743 12 22.5C12 22.5 12 22.5 12 22.5C12 23 12.0006 23.5 12.0017 24C12.234 26.6244 11.2062 29.4668 13.8063 32.6938C17.0727 35.2218 19.8669 34.109 22.5 34.2656C23 34.2522 23.5 34.2382 24 34.2236C26.6022 33.9538 29.5464 34.7587 32.3481 32.3481C33.7189 30.8472 33.663 29.0093 33.6954 27.5252C33.6911 26.3296 33.6233 25.1668 33.5625 24C33.1875 24 32.8125 24 32.4375 24C32.3735 25.165 32.3215 26.3278 32.2157 27.4576C32.0783 28.8971 31.8328 30.3392 31.0159 31.0159C29.6053 32.2359 26.5723 31.7811 24 31.7764C23.5 31.7618 23 31.7478 22.5 31.7344C19.9585 31.6259 16.7756 31.7728 15.8299 30.6701C14.7993 29.6849 15.031 26.5501 14.9983 24C14.9994 23.5 15 23 15 22.5C15 22.5 15 22.5 15 22.5C15.0374 19.9511 14.8183 16.8102 15.8441 15.8441C16.777 14.7577 19.9584 14.9053 22.5 14.8042C23 14.7919 23.5 14.7791 24 14.7656C26.5699 14.7629 29.6138 14.3328 30.9732 15.5269C32.033 16.4096 32.1187 18.5925 32.2529 20.5158C32.2919 21.1767 32.3244 21.8328 32.3587 22.5C32.3844 23 32.4106 23.5 32.4375 24Z" fill="white"/>
</svg>
