<svg width="36" height="36" viewBox="0 0 36 36" fill="none" xmlns="http://www.w3.org/2000/svg">
<g clip-path="url(#clip0_638_6997)">
<path d="M22.5 2C22.2379 2.50351 21.9805 3.0085 21.728 3.51499C19.4548 8.07339 17.5683 12.7526 16.0683 17.5526C14.5683 22.3526 13.4548 27.2734 12.728 32.315C12.6472 32.8752 12.5712 33.4368 12.5 34C12.7621 33.4965 13.0195 32.9915 13.272 32.485C15.5452 27.9266 17.4317 23.2474 18.9317 18.4474C20.4317 13.6474 21.5452 8.72661 22.272 3.68501C22.3528 3.12483 22.4288 2.56316 22.5 2Z" fill="white"/>
<path d="M27.5 8C27.4726 8.1137 27.4455 8.22739 27.4189 8.34109C27.3483 8.6457 27.2957 8.95576 27.2621 9.27168C26.7357 13.2104 29.8459 17.633 34.1857 18.4667L34.2466 15.5216C34.2238 15.5255 34.2011 15.5294 34.1785 15.5335C29.7401 16.2131 26.54 20.7852 27.2331 24.7376C27.2604 24.9288 27.295 25.1155 27.3364 25.3021C27.3894 25.5347 27.4439 25.7674 27.5 26C27.5561 25.7674 27.6106 25.5347 27.6636 25.3021C27.705 25.1225 27.7512 24.9481 27.8019 24.7742C28.8649 21.2046 31.7081 19.0132 34.7057 18.4868C34.7216 18.4839 34.7375 18.4812 34.7534 18.4784C36.4538 18.1865 36.5013 15.8944 34.8143 15.5333C31.8175 14.9004 29.0174 12.725 27.8292 9.21399C27.7347 8.93056 27.6517 8.64024 27.5811 8.34109C27.5545 8.22739 27.5274 8.1137 27.5 8Z" fill="white"/>
<path d="M7.5 8C7.6 8.39582 7.695 8.79163 7.785 9.18745C7.79469 9.23008 7.80433 9.27271 7.81391 9.31534C8.73158 12.993 6.01214 17.5217 1.86379 18.4552L1.79417 15.5292C1.81672 15.5336 1.83924 15.5382 1.86172 15.5429C5.96848 16.2872 8.7668 20.6989 7.89467 24.3188C7.85898 24.4834 7.82242 24.648 7.785 24.8126C7.695 25.2084 7.6 25.6042 7.5 26C7.4 25.6042 7.305 25.2084 7.215 24.8126C7.17758 24.648 7.14102 24.4834 7.10533 24.3188C6.34951 21.0742 3.88742 19.0197 1.25099 18.4801C1.23596 18.477 1.22091 18.4739 1.20583 18.4708C-0.460811 18.137 -0.512935 15.9565 1.1362 15.5448C3.86827 14.8719 6.37873 12.7023 7.18609 9.31534C7.19567 9.27271 7.20531 9.23008 7.215 9.18745C7.305 8.79163 7.4 8.39582 7.5 8Z" fill="white"/>
</g>
<defs>
<clipPath id="clip0_638_6997">
<rect width="36" height="36" fill="white"/>
</clipPath>
</defs>
</svg>
