<svg width="24" height="24" viewBox="0 0 24 24" fill="none" xmlns="http://www.w3.org/2000/svg">
<path d="M16.3333 12.375C16.422 12.3543 16.507 12.3113 16.5697 12.2432C16.6323 12.1752 16.6676 12.089 16.6676 12C16.6676 11.911 16.6323 11.8248 16.5697 11.7568C16.507 11.6887 16.422 11.6457 16.3333 11.625C16.1528 11.5833 15.9722 11.5438 15.7917 11.5063C14.5278 11.2438 13.2639 11.0833 12 11.025L12.975 12C12.9917 11.6389 13 11.2778 13 10.9167C13 9.29167 12.8313 7.66667 12.4938 6.04167C12.4562 5.86111 12.4167 5.68056 12.375 5.5C12.3543 5.41136 12.3113 5.32635 12.2432 5.26367C12.1752 5.20099 12.089 5.16578 12 5.16578C11.911 5.16578 11.8248 5.20099 11.7568 5.26367C11.6887 5.32635 11.6457 5.41136 11.625 5.5C11.5833 5.68056 11.5438 5.86111 11.5062 6.04167C11.1687 7.66667 11 9.29167 11 10.9167C11 11.2778 11.0083 11.6389 11.025 12C11.0504 12.551 11.449 13.0004 12 12.975C13.2639 12.9167 14.5278 12.7563 15.7917 12.4938C15.9722 12.4563 16.1528 12.4167 16.3333 12.375Z" fill="white"/>
<path d="M23.2057 12C23.2009 11.903 23.1609 11.8099 23.091 11.7413C23.0211 11.6726 22.9278 11.6341 22.8307 11.6341C22.7337 11.6341 22.6403 11.6726 22.5705 11.7413C22.5006 11.8099 22.4605 11.903 22.4557 12C22.4142 12.8228 22.279 13.6345 22.0535 14.4152C20.814 18.8928 16.4352 22.0545 11.9974 21.9028C9.39696 21.8677 6.86273 20.7834 5.04418 18.9532C3.21399 17.1347 2.12974 14.6004 2.09462 12C1.9429 7.56222 5.1046 3.18338 9.5822 1.94392C10.3629 1.71846 11.1747 1.58322 11.9974 1.54169C12.0944 1.5369 12.1875 1.49682 12.2561 1.42694C12.3248 1.3571 12.3633 1.26371 12.3633 1.16669C12.3633 1.06966 12.3248 0.976277 12.2561 0.906432C12.1875 0.836556 12.0944 0.79647 11.9974 0.791687C11.117 0.749843 10.2265 0.812786 9.35242 0.983527C4.33773 1.87512 0.220667 6.69975 0.233507 12C0.169543 15.0817 1.42823 18.186 3.62997 20.3674C5.81144 22.5692 8.91567 23.8279 11.9974 23.7639C17.2977 23.7767 22.1222 19.6597 23.0139 14.645C23.1846 13.7709 23.2476 12.8804 23.2057 12Z" fill="white"/>
<path d="M23.1264 6.74784C23.1005 6.46561 22.9735 6.24451 22.7215 6.15832C22.4724 6.07067 22.1188 6.12504 21.7903 6.28434C21.4617 6.44365 21.2001 6.68762 21.1146 6.93746C21.0262 7.18875 21.1211 7.4254 21.3268 7.62045C21.3472 7.6388 21.3677 7.65726 21.388 7.67583C21.7545 8.01014 22.1025 8.38033 22.4232 8.78818C22.441 8.81084 22.4587 8.83362 22.4764 8.8565C22.521 8.91541 22.5996 8.96129 22.6805 8.98833C22.7622 9.01512 22.8396 9.02085 22.91 9.00001C22.9804 8.97917 23.0421 8.93223 23.0961 8.86525C23.1492 8.79853 23.1902 8.71724 23.1955 8.64355C23.1972 8.61268 23.1988 8.58175 23.2002 8.55079C23.226 7.99334 23.2047 7.42132 23.1379 6.8441C23.1342 6.81203 23.1304 6.77995 23.1264 6.74784Z" fill="white"/>
<path d="M17.2544 0.872461C17.5367 0.897593 17.7581 1.02407 17.8449 1.27593C17.9332 1.52478 17.8797 1.87851 17.7212 2.20744C17.5627 2.53636 17.3193 2.79862 17.0697 2.88464C16.8186 2.97368 16.5817 2.87931 16.3862 2.67417C16.3678 2.65374 16.3493 2.63337 16.3307 2.61305C15.9955 2.2474 15.6244 1.90028 15.2158 1.58058C15.1931 1.56282 15.1703 1.54515 15.1474 1.52756C15.0883 1.48309 15.0423 1.40461 15.015 1.32378C14.988 1.24211 14.9821 1.16475 15.0028 1.09432C15.0235 1.02388 15.0703 0.96199 15.1371 0.907861C15.2037 0.854569 15.2849 0.813435 15.3586 0.807914C15.3894 0.806116 15.4204 0.804467 15.4513 0.80296C16.0087 0.775826 16.5808 0.795759 17.1581 0.861145C17.1902 0.864778 17.2223 0.868547 17.2544 0.872461Z" fill="white"/>
<path d="M19.4219 3.51794C19.6106 3.68455 19.7941 3.85717 19.9722 4.03533C20.1503 4.2135 20.3228 4.3972 20.4893 4.58598" stroke="white" stroke-width="2" stroke-linecap="round" stroke-linejoin="round"/>
</svg>
