<svg width="21" height="21" viewBox="0 0 21 21" fill="none" xmlns="http://www.w3.org/2000/svg">
<path d="M10.502 5.84082C8.01758 5.84082 6.01367 7.84473 6.01367 10.3291C6.01367 12.8135 8.01758 14.8174 10.502 14.8174C12.9863 14.8174 14.9902 12.8135 14.9902 10.3291C14.9902 7.84473 12.9863 5.84082 10.502 5.84082ZM10.502 13.2471C8.89648 13.2471 7.58398 11.9385 7.58398 10.3291C7.58398 8.71973 8.89258 7.41113 10.502 7.41113C12.1113 7.41113 13.4199 8.71973 13.4199 10.3291C13.4199 11.9385 12.1074 13.2471 10.502 13.2471ZM16.2207 5.65723C16.2207 6.23926 15.752 6.7041 15.1738 6.7041C14.5918 6.7041 14.127 6.23535 14.127 5.65723C14.127 5.0791 14.5957 4.61035 15.1738 4.61035C15.752 4.61035 16.2207 5.0791 16.2207 5.65723ZM19.1934 6.71973C19.127 5.31738 18.8066 4.0752 17.7793 3.05176C16.7559 2.02832 15.5137 1.70801 14.1113 1.6377C12.666 1.55566 8.33398 1.55566 6.88867 1.6377C5.49023 1.7041 4.24805 2.02441 3.2207 3.04785C2.19336 4.07129 1.87695 5.31348 1.80664 6.71582C1.72461 8.16113 1.72461 12.4932 1.80664 13.9385C1.87305 15.3408 2.19336 16.583 3.2207 17.6064C4.24805 18.6299 5.48633 18.9502 6.88867 19.0205C8.33398 19.1025 12.666 19.1025 14.1113 19.0205C15.5137 18.9541 16.7559 18.6338 17.7793 17.6064C18.8027 16.583 19.123 15.3408 19.1934 13.9385C19.2754 12.4932 19.2754 8.16504 19.1934 6.71973ZM17.3262 15.4893C17.0215 16.2549 16.4316 16.8447 15.6621 17.1533C14.5098 17.6104 11.7754 17.5049 10.502 17.5049C9.22852 17.5049 6.49023 17.6064 5.3418 17.1533C4.57617 16.8486 3.98633 16.2588 3.67773 15.4893C3.2207 14.3369 3.32617 11.6025 3.32617 10.3291C3.32617 9.05566 3.22461 6.31738 3.67773 5.16895C3.98242 4.40332 4.57227 3.81348 5.3418 3.50488C6.49414 3.04785 9.22852 3.15332 10.502 3.15332C11.7754 3.15332 14.5137 3.05176 15.6621 3.50488C16.4277 3.80957 17.0176 4.39941 17.3262 5.16895C17.7832 6.32129 17.6777 9.05566 17.6777 10.3291C17.6777 11.6025 17.7832 14.3408 17.3262 15.4893Z" fill="white"/>
</svg>
