<svg width="20" height="19" viewBox="0 0 20 19" fill="none" xmlns="http://www.w3.org/2000/svg">
<path d="M1.34961 3.14954C1.34961 2.57233 1.55232 2.09614 1.95772 1.72097C2.36312 1.34579 2.89016 1.1582 3.5388 1.1582C4.17587 1.1582 4.6913 1.3429 5.08513 1.71232C5.49053 2.09327 5.69324 2.58965 5.69324 3.20149C5.69324 3.7556 5.49633 4.21735 5.1025 4.58677C4.69711 4.96773 4.16428 5.1582 3.50405 5.1582H3.48668C2.8496 5.1582 2.33417 4.96773 1.94034 4.58677C1.54651 4.20582 1.34961 3.72674 1.34961 3.14954ZM1.57548 18.3011V6.73396H5.43262V18.3011H1.57548ZM7.56969 18.3011H11.4268V11.8422C11.4268 11.4381 11.4732 11.1264 11.5658 10.9071C11.728 10.5146 11.9741 10.1827 12.3042 9.91145C12.6344 9.64016 13.0484 9.50452 13.5465 9.50452C14.8438 9.50452 15.4925 10.3761 15.4925 12.1192V18.3011H19.3496V11.669C19.3496 9.9605 18.9442 8.66469 18.1334 7.78158C17.3226 6.89846 16.2512 6.4569 14.9191 6.4569C13.4249 6.4569 12.2608 7.09759 11.4268 8.37898V8.41361H11.4095L11.4268 8.37898V6.73396H7.56969C7.59285 7.10336 7.60444 8.25198 7.60444 10.1798C7.60444 12.1077 7.59285 14.8148 7.56969 18.3011Z" fill="white"/>
</svg>
