<svg width="185" height="61" viewBox="0 0 185 61" fill="none" xmlns="http://www.w3.org/2000/svg">
<path d="M30.5 1.5H154.5C170.516 1.5 183.5 14.4837 183.5 30.5C183.5 46.5163 170.516 59.5 154.5 59.5H30.5C14.4837 59.5 1.5 46.5163 1.5 30.5C1.5 14.4837 14.4837 1.5 30.5 1.5Z" fill="url(#paint0_linear_278_27)"/>
<path d="M30.5 1.5H154.5C170.516 1.5 183.5 14.4837 183.5 30.5C183.5 46.5163 170.516 59.5 154.5 59.5H30.5C14.4837 59.5 1.5 46.5163 1.5 30.5C1.5 14.4837 14.4837 1.5 30.5 1.5Z" stroke="url(#paint1_linear_278_27)" stroke-width="3"/>
<defs>
<linearGradient id="paint0_linear_278_27" x1="92.5" y1="0" x2="92.5" y2="61" gradientUnits="userSpaceOnUse">
<stop stop-color="#663FA0"/>
<stop offset="1" stop-color="#9561C5"/>
</linearGradient>
<linearGradient id="paint1_linear_278_27" x1="92.5" y1="0" x2="92.5" y2="61" gradientUnits="userSpaceOnUse">
<stop stop-color="#9C73EA"/>
<stop offset="0.324089" stop-color="#472368"/>
<stop offset="0.772485" stop-color="#472368"/>
<stop offset="1" stop-color="#614398"/>
</linearGradient>
</defs>
</svg>
