<svg width="24" height="24" viewBox="0 0 24 24" fill="none" xmlns="http://www.w3.org/2000/svg">
<path d="M9.46094 12.3611C9.71094 12.3611 9.96094 12.3611 10.2109 12.3611C10.2476 12.156 10.2829 11.8995 10.3373 11.8443C10.3455 11.8302 10.3542 11.8169 10.3632 11.8042C10.4778 11.641 10.6568 11.5663 10.8053 11.5751C10.8212 11.5917 11.0757 11.6129 11.2803 11.6388C11.7619 11.694 12.2434 11.741 12.7249 11.7797C12.9235 11.7935 13.2047 11.8239 13.1305 11.8325C13.1833 11.8724 13.2008 11.9287 13.1965 11.9702C13.1796 11.8822 13.1895 12.1626 13.1806 12.3611C13.1751 12.6018 13.1715 12.8426 13.1701 13.0834C13.1695 13.1309 13.1665 13.1774 13.161 13.2236C13.1022 13.7811 12.6303 14.2945 12.0026 14.367C11.3364 14.4706 10.5041 13.9813 10.3297 13.0871C10.3294 13.0859 10.3292 13.0846 10.3289 13.0834C10.2917 12.8426 10.2523 12.6018 10.2109 12.3611C9.96094 12.3611 9.71094 12.3611 9.46094 12.3611C9.41955 12.6018 9.38021 12.8426 9.34293 13.0834C9.34268 13.0853 9.34244 13.0873 9.34219 13.0893C9.11702 14.4998 10.364 16.0854 12.0026 16.1331C13.4988 16.2488 14.9943 15.0144 15.1471 13.4594C15.1619 13.3342 15.169 13.209 15.1685 13.0834C15.167 12.8426 15.1635 12.6018 15.1579 12.3611C15.1418 12.131 15.1859 11.9768 15.068 11.4686C14.8735 10.7758 14.2842 10.2252 13.6017 10.0746C13.1082 9.98255 12.9548 10.0471 12.7249 10.0536C12.2434 10.0924 11.7619 10.1394 11.2803 10.1946C11.0564 10.2277 10.8763 10.2148 10.4722 10.3322C9.94075 10.5182 9.54592 10.9753 9.43159 11.4766C9.42226 11.516 9.41456 11.5556 9.40841 11.5953C9.36202 11.9596 9.43143 12.1376 9.46094 12.3611ZM10.2109 12.3611H9.46094H10.2109Z" fill="white"/>
<path d="M13.8497 12.7232C13.9195 12.9633 13.9892 13.2034 14.0589 13.4435C14.4612 13.35 14.8573 13.25 15.2526 13.1507C15.5828 13.0677 15.9128 12.9842 16.2427 12.9003C17.4424 12.5953 18.6404 12.2848 19.8367 11.9689C20.5547 11.7742 21.323 11.4679 21.9514 10.8474C22.5871 10.2303 22.9107 9.3511 23.0131 8.57101C23.0591 8.12817 23.1938 7.78304 23.101 7.03758C22.8862 5.8166 21.8616 4.95439 20.7973 4.69127C20.0564 4.53261 19.6264 4.58525 19.1227 4.56311C16.7493 4.52104 14.376 4.5 12.0026 4.5C9.62923 4.5 7.25585 4.52104 4.88247 4.56311C4.37882 4.58525 3.94874 4.53262 3.20787 4.69127C2.14363 4.95439 1.11896 5.81658 0.904287 7.03753C0.811395 7.7829 0.946097 8.12816 0.992036 8.57105C1.09451 9.35113 1.41814 10.2303 2.05383 10.8474C2.68219 11.4679 3.4505 11.7742 4.1685 11.9689C5.3648 12.2848 6.5628 12.5953 7.76249 12.9003C8.09237 12.9842 8.42238 13.0677 8.75252 13.1507C9.14787 13.25 9.54406 13.35 9.94626 13.4434C10.016 13.2034 10.0857 12.9633 10.1555 12.7232C9.77622 12.5892 9.3952 12.4477 9.0126 12.3074C8.69303 12.1901 8.37333 12.0732 8.05351 11.9567C6.89041 11.533 5.72563 11.1148 4.55917 10.7021C3.33516 10.2834 2.65898 9.55542 2.60221 8.38678C2.56806 7.98007 2.52367 7.46965 2.56791 7.36463C2.66775 6.93796 3.10265 6.56162 3.63453 6.45691C3.85328 6.4113 4.41 6.42978 4.88247 6.43689C7.25585 6.47896 9.62923 6.5 12.0026 6.5C14.376 6.5 16.7493 6.47896 19.1227 6.43689C19.5952 6.42978 20.1519 6.4113 20.3707 6.4569C20.9026 6.56162 21.3375 6.93796 21.4373 7.36465C21.4815 7.46953 21.4371 7.98006 21.4029 8.38678C21.3463 9.55544 20.6701 10.2834 19.4461 10.7021C18.2796 11.1148 17.1148 11.533 15.9517 11.9567C15.6319 12.0732 15.3121 12.1901 14.9926 12.3074C14.61 12.4477 14.229 12.5892 13.8497 12.7232Z" fill="white"/>
<path d="M3.12488 10.9504C3.12732 10.8539 3.0955 10.7583 3.03218 10.6842C2.9689 10.6101 2.87996 10.5637 2.78407 10.555C2.68818 10.5464 2.59235 10.5761 2.51682 10.6377C2.44125 10.6992 2.39281 10.7876 2.37792 10.8829C2.27826 11.523 2.18068 12.1632 2.08517 12.8036C2.0643 12.9435 2.04353 13.0834 2.02287 13.2234C1.84738 15.812 0.52245 18.5157 2.55167 21.5235C5.2574 23.9779 8.16737 23.0741 10.726 23.289C11.1507 23.2908 11.5753 23.2917 12 23.2917C12.4247 23.2917 12.8493 23.2908 13.274 23.289C15.8326 23.0741 18.7426 23.9779 21.4483 21.5236C23.4776 18.5156 22.1526 15.812 21.9771 13.2234C21.9564 13.0835 21.9357 12.9435 21.9148 12.8036C21.8193 12.1632 21.7218 11.523 21.6221 10.8829C21.6072 10.7876 21.5588 10.6992 21.4832 10.6377C21.4077 10.5761 21.3119 10.5464 21.216 10.555C21.1201 10.5637 21.0311 10.6101 20.9679 10.6842C20.9045 10.7583 20.8727 10.8539 20.8752 10.9504C20.8918 11.5979 20.9105 12.2453 20.9313 12.8925C20.9359 13.0338 20.9405 13.1752 20.9453 13.3166C20.9498 15.8422 21.486 18.9764 20.1725 20.3657C18.8474 21.6535 15.7939 21.2285 13.274 21.2944C12.8493 21.2926 12.4247 21.2917 12 21.2917C11.5753 21.2917 11.1507 21.2926 10.726 21.2944C8.20614 21.2285 5.15255 21.6535 3.82754 20.3657C2.514 18.9764 3.05019 15.8422 3.05472 13.3166C3.05947 13.1752 3.06411 13.0339 3.06866 12.8925C3.08947 12.2453 3.10821 11.5979 3.12488 10.9504Z" fill="white"/>
<path d="M15.4343 5.06339C15.6743 4.99336 15.9143 4.92333 16.1543 4.8533C16.147 4.75162 16.1392 4.65009 16.1308 4.54871C16.1228 4.45269 16.1145 4.35786 16.1057 4.26327C15.9648 3.40729 16.1113 2.50998 15.1399 1.44778C13.9207 0.494946 12.9424 0.78219 12.1134 0.708572C12.0765 0.70842 12.0395 0.708344 12.0026 0.708344C11.9657 0.708344 11.9287 0.70842 11.8918 0.708572C11.0628 0.782187 10.0845 0.494955 8.86527 1.44778C7.89392 2.50996 8.04038 3.40729 7.89945 4.26326C7.89067 4.35785 7.88243 4.45269 7.87433 4.54876C7.866 4.65013 7.8582 4.75166 7.85094 4.85334C8.09094 4.92334 8.33094 4.99335 8.57094 5.06335C8.61948 4.97371 8.66749 4.88391 8.71496 4.79396C8.75979 4.70859 8.80374 4.62445 8.84715 4.54079C9.22986 3.80846 9.64491 2.88927 9.9683 2.78688C10.1539 2.66021 11.0531 2.70205 11.8918 2.70811C11.9287 2.70827 11.9657 2.70834 12.0026 2.70834C12.0395 2.70834 12.0765 2.70827 12.1134 2.70811C12.9521 2.70205 13.8513 2.66022 14.0369 2.78686C14.3603 2.88927 14.7753 3.80847 15.158 4.5408C15.2014 4.62446 15.2454 4.70859 15.2902 4.79395C15.3377 4.88395 15.3857 4.97375 15.4343 5.06339Z" fill="white"/>
</svg>
