<svg width="36" height="36" viewBox="0 0 36 36" fill="none" xmlns="http://www.w3.org/2000/svg">
<path d="M26.0625 18C26.0474 17.8585 25.986 17.7228 25.8821 17.6228C25.7782 17.5228 25.6415 17.4665 25.5 17.4665C25.3585 17.4665 25.2218 17.5228 25.1179 17.6228C25.014 17.7228 24.9526 17.8585 24.9375 18C24.8751 18.5463 24.7523 19.0765 24.5741 19.5793C23.5755 22.4622 20.724 24.2653 18 24.1042C16.3941 24.0398 14.8698 23.3596 13.7574 22.2426C12.6404 21.1302 11.9602 19.6059 11.8958 18C11.7347 15.276 13.5378 12.4245 16.4207 11.4259C16.9235 11.2477 17.4537 11.1249 18 11.0625C18.1415 11.0474 18.2772 10.986 18.3772 10.8821C18.4772 10.7782 18.5335 10.6415 18.5335 10.5C18.5335 10.3585 18.4772 10.2218 18.3772 10.1179C18.2772 10.014 18.1415 9.95263 18 9.9375C17.3672 9.87486 16.719 9.88924 16.0761 9.98535C12.3875 10.4621 9.15137 13.9823 9.10417 18C9.01987 20.3279 9.96171 22.7071 11.636 24.3639C13.2929 26.0383 15.6721 26.9801 18 26.8958C22.0177 26.8486 25.5378 23.6125 26.0146 19.9239C26.1108 19.281 26.1251 18.6328 26.0625 18Z" fill="white"/>
<path d="M20.8881 3.85132C21.0322 3.87326 21.181 3.84211 21.3027 3.75987C21.4244 3.67768 21.509 3.5519 21.538 3.40927C21.5669 3.26663 21.5381 3.11784 21.4581 2.99469C21.378 2.87149 21.2532 2.78478 21.1119 2.7488C20.098 2.49263 19.0529 2.3409 18 2.29571C17.7135 2.28347 17.429 2.27899 17.144 2.28227C9.05331 2.17449 1.51109 9.54856 1.58841 18C1.50494 22.2989 3.26303 26.6257 6.33273 29.6672C9.37425 32.737 13.7011 34.4951 18 34.4116C26.4514 34.4889 33.8254 26.9467 33.7177 18.856C33.721 18.571 33.7165 18.2865 33.7043 18C33.6591 16.947 33.5073 15.9021 33.2513 14.8882C33.2153 14.7469 33.1286 14.622 33.0054 14.542C32.8823 14.4619 32.7335 14.4331 32.5909 14.462C32.4482 14.491 32.3224 14.5755 32.2402 14.6972C32.158 14.819 32.1268 14.9677 32.1487 15.1118C32.2932 16.0711 32.3411 17.0396 32.2957 18C32.2834 18.2613 32.2644 18.5194 32.2386 18.7767C31.6345 26.0733 24.944 31.8566 18 31.5884C14.4313 31.5449 10.951 30.0589 8.45406 27.5459C5.94108 25.0489 4.45514 21.5687 4.41159 18C4.14335 11.056 9.9267 4.36546 17.2233 3.7614C17.4806 3.73562 17.7387 3.71655 18 3.70429C18.9604 3.65887 19.9289 3.70672 20.8881 3.85132Z" fill="white"/>
<path d="M18.0459 17.9436L24.8752 11.1142M29.611 6.51677L28.7812 3.53606C28.6284 3.045 28.0375 2.84931 27.6393 3.17477C25.4851 4.93511 23.1385 7.3062 25.0549 11.0461C28.9161 12.8466 31.1203 10.4186 32.8104 8.37779C33.1467 7.97174 32.9439 7.36134 32.4375 7.21491L29.611 6.51677Z" stroke="white" stroke-width="2.5" stroke-linecap="round" stroke-linejoin="round"/>
</svg>
