<svg width="36" height="36" viewBox="0 0 36 36" fill="none" xmlns="http://www.w3.org/2000/svg">
<path d="M22.6329 23.6264C22.4706 23.9644 22.3083 24.3025 22.146 24.6406C20.9224 24.1225 19.7001 23.6017 18.4792 23.078C16.3061 22.1459 14.1372 21.2049 11.9726 20.2549C11.4004 20.0107 10.8117 19.9765 10.2239 20.1354C9.86932 20.222 9.57176 20.3188 9.07102 20.396C5.97387 21.0656 3.02458 17.8263 3.19392 14.9336C3.18416 14.4779 3.17477 14.0221 3.16575 13.5664C2.88324 10.6848 5.80123 7.1925 9.10739 7.78569C9.65331 7.85477 9.94282 7.93675 10.3033 8.00916C10.8284 8.11683 11.3004 8.05533 11.7706 7.82436C13.5983 6.93075 15.4291 6.04378 17.2631 5.16343C18.7555 4.44703 20.25 3.73501 21.7466 3.02738C22.5052 2.67252 23.2532 2.30135 24.1512 1.96613C24.9963 1.64022 26.3517 1.32722 27.5611 1.77921C28.5113 2.05739 29.48 2.94032 29.902 3.68365C30.3654 4.43307 30.6411 5.09406 30.9409 5.73886C33.4313 11.0584 33.2451 17.5008 30.5495 22.5745C30.2174 23.2018 29.9039 23.8469 29.4437 24.5196C29.0111 25.1915 28.1876 25.8841 27.3517 26.0966C26.9461 26.2203 26.4957 26.2715 26.074 26.2375C24.4106 26.033 23.3407 25.2379 22.146 24.6406C22.3083 24.3025 22.4706 23.9644 22.6329 23.6264C23.8424 24.1204 25.1198 24.7558 26.1355 24.7575C26.389 24.7537 26.6187 24.7055 26.8535 24.612C27.8492 24.2905 28.2502 23.0727 28.8397 21.7595C30.9286 16.9939 30.7427 11.4471 28.4483 6.92708C28.134 6.29838 27.8273 5.66431 27.529 5.22076C27.2094 4.7652 27.0567 4.65335 26.644 4.51207C26.0577 4.20227 24.5121 4.98431 23.0323 5.70561C21.544 6.43079 20.0537 7.15157 18.5613 7.86797C16.7273 8.74832 14.8902 9.62205 13.0499 10.4892C12.0284 10.9881 10.759 11.1189 9.6666 10.8514C9.33443 10.7739 8.9368 10.678 8.77934 10.6568C7.15566 10.3807 5.87405 11.7144 5.83425 13.5664C5.82523 14.0221 5.81584 14.4779 5.80608 14.9336C5.73273 16.7746 6.98303 18.3611 8.81586 18.1614C9.01837 18.1485 9.40795 18.0674 9.74637 18.0038C10.7757 17.7878 11.9283 17.9459 12.8479 18.4315C14.943 19.5263 17.0337 20.63 19.1202 21.7426C20.2925 22.3677 21.4633 22.9956 22.6329 23.6264Z" fill="white"/>
<path d="M4.2051 31.5904C4.44359 31.301 4.68209 31.0117 4.92059 30.7223C5.39136 31.0293 5.86015 31.3387 6.32695 31.6505C6.66772 31.8781 7.00743 32.107 7.34608 32.3373L6.26622 32.3271C7.90944 30.7538 9.31594 29.1386 9.60501 27.27C9.94152 25.3645 9.72424 23.0102 9.73073 20.6991C9.72798 20.3001 9.72782 19.9083 9.73094 19.5L11.2262 20.9953C10.6593 20.9908 10.0924 20.9831 9.5255 20.9722L10.979 19.7338C10.5044 22.9381 8.62608 26.6133 5.50932 28.1326C4.95128 28.3972 4.5166 28.9885 4.50216 29.6366C4.49125 30.0134 4.62548 30.3993 4.92062 30.7223C4.6821 31.0117 4.44358 31.301 4.20507 31.5904C3.63169 31.2085 3.17366 30.5547 3.03219 29.8191C2.77437 28.5604 3.37186 27.2193 4.41262 26.4583C6.74967 24.7179 7.68213 22.1721 8.072 19.2662C8.17026 18.57 8.82246 18.0414 9.5255 18.0278C10.0924 18.0169 10.6593 18.0092 11.2262 18.0047C12.0721 17.998 12.7149 18.6542 12.7216 19.5C12.7247 19.8997 12.7279 20.2844 12.7307 20.6783C12.7069 22.9751 12.8948 25.2944 12.2067 27.9107C11.47 30.6488 9.26102 32.4067 7.33355 33.6729C7.00969 33.8843 6.52819 33.9352 6.25368 33.6627C5.96303 33.3743 5.67343 33.0846 5.38489 32.7936C4.98964 32.3949 4.59637 31.9939 4.2051 31.5904Z" fill="white"/>
<path d="M10.6875 18.75C10.7387 18.8713 10.8091 18.9876 10.9085 19.0734C11.0079 19.1592 11.1272 19.2074 11.25 19.2074C11.3728 19.2074 11.4921 19.1592 11.5915 19.0734C11.6909 18.9876 11.7613 18.8713 11.8125 18.75C11.875 18.6 11.9344 18.45 11.9906 18.3C12.4969 16.95 12.75 15.6 12.75 14.25C12.75 12.9 12.4969 11.55 11.9906 10.2C11.9344 10.05 11.875 9.9 11.8125 9.75C11.7613 9.62869 11.6909 9.51235 11.5915 9.42658C11.4921 9.3408 11.3728 9.29261 11.25 9.29261C11.1272 9.29261 11.0079 9.3408 10.9085 9.42658C10.8091 9.51235 10.7387 9.62869 10.6875 9.75C10.625 9.9 10.5656 10.05 10.5094 10.2C10.0031 11.55 9.75 12.9 9.75 14.25C9.75 15.6 10.0031 16.95 10.5094 18.3C10.5656 18.45 10.625 18.6 10.6875 18.75Z" fill="white"/>
</svg>
