<svg width="19" height="23" viewBox="0 0 19 23" fill="none" xmlns="http://www.w3.org/2000/svg">
<path d="M13.625 9.375C13.375 9.375 13.125 9.375 12.875 9.375C12.8334 9.67618 12.7463 9.96384 12.6214 10.2267C12.4342 10.6214 12.1619 10.959 11.8396 11.2146C11.3027 11.6429 10.6296 11.8353 10 11.7813C9.369 11.7305 8.78548 11.4369 8.38139 10.9936C7.97462 10.552 7.74851 9.96432 7.75 9.375C7.74851 8.78568 7.97462 8.19803 8.38139 7.75639C8.78548 7.31309 9.369 7.0195 10 6.96875C10.6296 6.91473 11.3027 7.10705 11.8396 7.53542C12.1619 7.791 12.4342 8.12859 12.6214 8.52328C12.7463 8.78616 12.8334 9.07382 12.875 9.375C13.125 9.375 13.375 9.375 13.625 9.375C13.6668 8.99544 13.6461 8.60253 13.5605 8.2181C13.4329 7.64137 13.1571 7.08431 12.7566 6.61839C12.0932 5.83774 11.0741 5.32915 10 5.28125C8.92732 5.22438 7.81868 5.6317 7.02242 6.39742C6.22017 7.15613 5.74537 8.26064 5.75 9.375C5.75 9.375 5.75 9.375 5.75 9.375C5.74537 10.4894 6.22017 11.5939 7.02242 12.3526C7.81868 13.1183 8.92732 13.5256 10 13.4688C11.0741 13.4209 12.0932 12.9123 12.7566 12.1316C13.1571 11.6657 13.4329 11.1086 13.5605 10.5319C13.6461 10.1475 13.6668 9.75456 13.625 9.375ZM12.875 9.375H13.625H12.875V9.375Z" fill="white"/>
<path d="M18.5 9.375C18.25 9.375 18 9.375 17.75 9.375C17.7087 10.2797 17.5523 11.1708 17.2898 12.0276C16.1029 15.8557 12.9474 18.8593 9.58167 20.7988H10.4183C7.06941 18.6786 4.03916 15.4571 3.14295 11.67C2.96511 10.9179 2.87311 10.1489 2.86986 9.375C2.85502 7.50663 3.60189 5.64145 4.91717 4.29217C6.22302 2.93463 8.08342 2.1097 10 2.06412C11.9152 2.0058 13.8644 2.73029 15.302 4.07301C16.1091 4.82108 16.7569 5.75338 17.1803 6.79058C17.5135 7.60472 17.7086 8.48222 17.75 9.375C18 9.375 18.25 9.375 18.5 9.375C18.542 8.39603 18.4107 7.4027 18.1094 6.45613C17.7272 5.25055 17.0679 4.12251 16.1885 3.1865C14.6252 1.5067 12.344 0.478895 10 0.43588C7.65738 0.374995 5.28739 1.30236 3.59235 2.96735C1.8851 4.61896 0.879681 6.98417 0.880142 9.375C0.876347 10.302 0.983583 11.2299 1.19653 12.1298C2.32857 16.7096 5.72753 20.0885 9.58167 22.3262L10.0201 22.555L10.4183 22.3262C14.1149 19.9943 17.2553 16.588 18.2453 12.2769C18.4562 11.3217 18.5421 10.3431 18.5 9.375ZM17.75 9.375H18.5H17.75Z" fill="white"/>
</svg>
