<svg width="150" height="150" viewBox="0 0 150 150" fill="none" xmlns="http://www.w3.org/2000/svg">
<path d="M79.6875 4C116.385 4 146 33.6154 146 70.3125C146 107.01 116.385 136.625 79.6875 136.625C70.8635 136.625 62.5117 134.864 54.5938 131.345L52.96 130.619L51.3291 131.352L18.9854 145.883L18.9141 145.914L18.7656 145.766L18.6387 145.624C18.3829 145.306 18.2987 144.949 18.3945 144.491L28.1758 114.685L28.8545 112.617L27.4863 110.924C18.2384 99.4738 13.375 85.3688 13.375 70.3125C13.375 33.6154 42.9904 4 79.6875 4Z" fill="#25D366" stroke="white" stroke-width="8"/>
<path d="M120.469 96.0938C118.594 101.719 111.562 106.406 105.469 107.344C104.062 107.812 102.656 107.812 100.781 107.812C97.0312 107.812 91.4062 106.875 81.5625 102.656C70.3125 97.9687 59.0625 88.125 50.1562 75.4688V75C47.3437 70.7813 42.1875 62.8125 42.1875 54.375C42.1875 44.0625 47.3437 38.9063 49.2188 36.5625C51.5625 34.2188 54.8437 32.8125 58.5938 32.8125C59.5313 32.8125 60 32.8125 60.9375 32.8125C64.2187 32.8125 66.5625 33.75 68.9062 38.4375L70.7813 42.1875C72.1875 45.9375 74.0625 50.1563 74.5312 50.625C75.9375 53.4375 75.9375 55.7812 74.5312 58.125C74.0625 59.5312 73.125 60.4688 72.1875 61.4063C71.7187 62.3438 71.25 62.8125 70.7813 62.8125C70.3125 63.2812 70.3125 63.2813 69.8437 63.75C71.25 66.0938 74.0625 70.3125 77.8125 73.5937C83.4375 78.75 87.6563 80.1562 90 81.0937C90.9375 80.1562 91.875 78.2812 93.2812 76.875L93.75 75.9375C96.0938 72.6563 99.8438 71.7188 103.594 73.125C105.469 74.0625 115.781 78.75 115.781 78.75L116.719 79.2187C118.125 80.1562 120 80.625 120.937 82.5C122.812 86.7188 121.406 92.8125 120.469 96.0938Z" fill="white"/>
</svg>
