<svg width="21" height="15" viewBox="0 0 21 15" fill="none" xmlns="http://www.w3.org/2000/svg">
<path d="M10.7834 14.2466L6.62072 14.1703C5.27293 14.1438 3.92179 14.1968 2.60043 13.9215C0.590327 13.5103 0.447925 11.4939 0.298916 9.80247C0.0935964 7.42457 0.173082 5.00351 0.560546 2.64547C0.779282 1.32235 1.6401 0.532843 2.97132 0.446929C7.46517 0.135136 11.9889 0.172087 16.4728 0.31755C16.9464 0.330885 17.4232 0.403769 17.8901 0.48673C20.1951 0.89136 20.2513 3.17642 20.4007 5.10001C20.5497 7.04346 20.4868 8.99687 20.202 10.9271C19.9735 12.5252 19.5363 13.8655 17.6914 13.9948C15.3798 14.164 13.1213 14.3002 10.8032 14.2569C10.8033 14.2466 10.79 14.2466 10.7834 14.2466ZM8.33615 10.2005C10.0781 9.19883 11.7868 8.21388 13.5188 7.21895C11.7736 6.2173 10.0682 5.23235 8.33615 4.23742V10.2005Z" fill="white"/>
</svg>
